<svg width="539" height="495" viewBox="0 0 539 495" fill="none" xmlns="http://www.w3.org/2000/svg">
<path d="M0 20C0 8.9543 8.9543 0 20 0H519C530.046 0 539 8.95431 539 20V475C539 486.046 530.046 495 519 495H20C8.9543 495 0 486.046 0 475V20Z" fill="#1D1C22"/>
<path d="M336 261.5L310 185.5L439 185L336 261.5Z" fill="url(#paint0_linear_4_22)"/>
<path d="M165.5 276.5L99 185L203.5 264.5L165.5 276.5Z" fill="url(#paint1_linear_4_22)"/>
<path d="M270.5 312L203.5 264.5L269 237L270.5 312Z" fill="url(#paint2_linear_4_22)"/>
<path d="M336 261.5L269 237L270.5 312L336 261.5Z" fill="url(#paint3_linear_4_22)"/>
<path d="M439 185L336 261.5L376.5 274.5L439 185Z" fill="url(#paint4_linear_4_22)"/>
<path d="M442 299.5L376.5 274.5L398.5 243L442 299.5Z" fill="url(#paint5_linear_4_22)"/>
<path d="M379.5 390.5L336 261.5L376.5 274.5L379.5 390.5Z" fill="url(#paint6_linear_4_22)"/>
<path d="M270.5 312L336 261.5L379.5 390.5L270.5 312Z" fill="url(#paint7_linear_4_22)"/>
<path d="M270.5 312L203.5 264.5L167.5 389L270.5 312Z" fill="url(#paint8_linear_4_22)"/>
<path d="M165.5 276.5L203.5 264.5L167.5 389L165.5 276.5Z" fill="url(#paint9_linear_4_22)"/>
<path d="M95 299L139 240L165.5 276.5L95 299Z" fill="url(#paint10_linear_4_22)"/>
<path d="M95 299L165.5 276.5L166.5 322.5L95 299Z" fill="url(#paint11_linear_4_22)"/>
<path d="M167.5 389L270.5 312L269.5 357.5L167.5 389Z" fill="url(#paint12_linear_4_22)"/>
<path d="M269.5 358L270.5 312L379.5 390.5L269.5 358Z" fill="url(#paint13_linear_4_22)"/>
<path d="M377.5 322.5L376.5 274.5L442 299.5L377.5 322.5Z" fill="url(#paint14_linear_4_22)"/>
<path d="M271.5 419.5L234 368L269.5 357.5L271.5 419.5Z" fill="url(#paint15_linear_4_22)"/>
<path d="M270.676 419.5L309 369.5L269.5 357.5L270.676 419.5Z" fill="url(#paint16_linear_4_22)"/>
<path d="M269 237L310 185.5L336 261.5L269 237Z" fill="url(#paint17_linear_4_22)"/>
<path d="M203.5 264.5L229 185.5L269 237L203.5 264.5Z" fill="url(#paint18_linear_4_22)"/>
<path d="M203.5 264.5L99 185L229 185.5L203.5 264.5Z" fill="url(#paint19_linear_4_22)"/>
<path d="M99 185L204 152L229 185.5L99 185Z" fill="url(#paint20_linear_4_22)"/>
<path d="M204.5 152L162 92V165L204.5 152Z" fill="url(#paint21_linear_4_22)"/>
<path d="M336.5 150L310 185.5L439 185L336.5 150Z" fill="url(#paint22_linear_4_22)"/>
<path d="M269 237L229 185.5H310L269 237Z" fill="url(#paint23_linear_4_22)"/>
<path d="M309.5 112L376 90L336.5 150L309.5 112Z" fill="url(#paint24_linear_4_22)"/>
<path d="M204 152L162 92L229 115.5L204 152Z" fill="url(#paint25_linear_4_22)"/>
<path d="M204 152L269.5 56L229 185.5L204 152Z" fill="url(#paint26_linear_4_22)"/>
<path d="M310 185.5L269.5 56L337 149.5L310 185.5Z" fill="url(#paint27_linear_4_22)"/>
<path d="M229 185.5L269.5 56L310 185.5H229Z" fill="url(#paint28_linear_4_22)"/>
<defs>
<linearGradient id="paint0_linear_4_22" x1="439" y1="185" x2="327" y2="230.5" gradientUnits="userSpaceOnUse">
<stop stop-color="#96E5F2"/>
<stop offset="1" stop-color="#BFACFE"/>
</linearGradient>
<linearGradient id="paint1_linear_4_22" x1="99" y1="185" x2="182" y2="270" gradientUnits="userSpaceOnUse">
<stop stop-color="#993AC9"/>
<stop offset="0.510417" stop-color="#A86ED6"/>
<stop offset="1" stop-color="#462FB8"/>
</linearGradient>
<linearGradient id="paint2_linear_4_22" x1="270" y1="237" x2="237" y2="287.5" gradientUnits="userSpaceOnUse">
<stop stop-color="#E25CD6"/>
<stop offset="1" stop-color="#9E51DB"/>
</linearGradient>
<linearGradient id="paint3_linear_4_22" x1="269" y1="237" x2="308" y2="285" gradientUnits="userSpaceOnUse">
<stop offset="0.140625" stop-color="#DAD0FD"/>
<stop offset="1" stop-color="#A1CBFF"/>
</linearGradient>
<linearGradient id="paint4_linear_4_22" x1="439" y1="185" x2="363" y2="267.5" gradientUnits="userSpaceOnUse">
<stop stop-color="#6FB0FE"/>
<stop offset="0.552083" stop-color="#BA95F1"/>
<stop offset="1" stop-color="#AE7BFF"/>
</linearGradient>
<linearGradient id="paint5_linear_4_22" x1="392.5" y1="258" x2="442" y2="300" gradientUnits="userSpaceOnUse">
<stop stop-color="#73B9FF"/>
<stop offset="1" stop-color="#DBEEFF"/>
</linearGradient>
<linearGradient id="paint6_linear_4_22" x1="358" y1="265.5" x2="379" y2="391" gradientUnits="userSpaceOnUse">
<stop offset="0.140625" stop-color="#CEBDF3"/>
<stop offset="1" stop-color="white"/>
</linearGradient>
<linearGradient id="paint7_linear_4_22" x1="307.5" y1="281.5" x2="379" y2="391" gradientUnits="userSpaceOnUse">
<stop stop-color="#AA97F8"/>
<stop offset="0.385417" stop-color="#C5A2FF"/>
<stop offset="1" stop-color="#9ADDFF"/>
</linearGradient>
<linearGradient id="paint8_linear_4_22" x1="236" y1="289" x2="171.5" y2="389" gradientUnits="userSpaceOnUse">
<stop stop-color="#B28EFF"/>
<stop offset="0.442708" stop-color="#CF5FEA"/>
<stop offset="0.901042" stop-color="#96E6FF"/>
</linearGradient>
<linearGradient id="paint9_linear_4_22" x1="186.5" y1="267.5" x2="167" y2="385.5" gradientUnits="userSpaceOnUse">
<stop stop-color="#9867FF"/>
<stop offset="0.453125" stop-color="#AF81FE"/>
<stop offset="0.838542" stop-color="#74AEF7"/>
</linearGradient>
<linearGradient id="paint10_linear_4_22" x1="99.5" y1="299" x2="160" y2="262.5" gradientUnits="userSpaceOnUse">
<stop stop-color="#458EDA"/>
<stop offset="1" stop-color="#1A1A95"/>
</linearGradient>
<linearGradient id="paint11_linear_4_22" x1="95" y1="300" x2="164.5" y2="303.5" gradientUnits="userSpaceOnUse">
<stop stop-color="#725FD0"/>
<stop offset="1" stop-color="#20288C"/>
</linearGradient>
<linearGradient id="paint12_linear_4_22" x1="274" y1="319.5" x2="168.5" y2="392.5" gradientUnits="userSpaceOnUse">
<stop stop-color="#885FFE"/>
<stop offset="0.40625" stop-color="#AE80FD"/>
<stop offset="1" stop-color="#6CB5FD"/>
</linearGradient>
<linearGradient id="paint13_linear_4_22" x1="269" y1="328" x2="379" y2="391" gradientUnits="userSpaceOnUse">
<stop stop-color="#6344CD"/>
<stop offset="1" stop-color="#B75BF5"/>
</linearGradient>
<linearGradient id="paint14_linear_4_22" x1="376" y1="287.5" x2="442" y2="303" gradientUnits="userSpaceOnUse">
<stop stop-color="#3E31BD"/>
<stop offset="1" stop-color="#88AAE6"/>
</linearGradient>
<linearGradient id="paint15_linear_4_22" x1="253" y1="358" x2="271" y2="420" gradientUnits="userSpaceOnUse">
<stop stop-color="#241E90"/>
<stop offset="1" stop-color="#7158F3"/>
</linearGradient>
<linearGradient id="paint16_linear_4_22" x1="289" y1="362" x2="274.5" y2="420" gradientUnits="userSpaceOnUse">
<stop stop-color="#404AC6"/>
<stop offset="1" stop-color="#86BFE7"/>
</linearGradient>
<linearGradient id="paint17_linear_4_22" x1="267" y1="233.5" x2="325.5" y2="224" gradientUnits="userSpaceOnUse">
<stop stop-color="#D9D9D9"/>
<stop offset="0.0001" stop-color="#F3FCF9"/>
<stop offset="1" stop-color="#B0DAEC"/>
</linearGradient>
<linearGradient id="paint18_linear_4_22" x1="219.5" y1="218" x2="267" y2="237.5" gradientUnits="userSpaceOnUse">
<stop stop-color="#F377F1"/>
<stop offset="1" stop-color="#9CA1F4"/>
</linearGradient>
<linearGradient id="paint19_linear_4_22" x1="101.5" y1="185" x2="218.5" y2="222" gradientUnits="userSpaceOnUse">
<stop stop-color="#9AEBFE"/>
<stop offset="0.666667" stop-color="#C7A4FF"/>
<stop offset="1" stop-color="#AF94FB"/>
</linearGradient>
<linearGradient id="paint20_linear_4_22" x1="98" y1="185" x2="222" y2="171" gradientUnits="userSpaceOnUse">
<stop stop-color="#F8FCFD"/>
<stop offset="0.728259" stop-color="#ABEEFF"/>
<stop offset="0.90625" stop-color="#B4AEFF"/>
</linearGradient>
<linearGradient id="paint21_linear_4_22" x1="162" y1="89.5" x2="183" y2="160" gradientUnits="userSpaceOnUse">
<stop stop-color="#A5C4E9"/>
<stop offset="1" stop-color="#3F2DC6"/>
</linearGradient>
<linearGradient id="paint22_linear_4_22" x1="327.5" y1="163.5" x2="435.5" y2="185" gradientUnits="userSpaceOnUse">
<stop stop-color="#BCEDFC"/>
<stop offset="1" stop-color="#F4FDF8"/>
</linearGradient>
<linearGradient id="paint23_linear_4_22" x1="269.5" y1="185" x2="269.5" y2="237" gradientUnits="userSpaceOnUse">
<stop stop-color="#C793F0"/>
<stop offset="0.442708" stop-color="#AFCAFF"/>
<stop offset="1" stop-color="#F8FBFF"/>
</linearGradient>
<linearGradient id="paint24_linear_4_22" x1="378.913" y1="87.2619" x2="327.775" y2="130.521" gradientUnits="userSpaceOnUse">
<stop offset="0.255208" stop-color="#B2D0F2"/>
<stop offset="1" stop-color="#6CAFFD"/>
</linearGradient>
<linearGradient id="paint25_linear_4_22" x1="162" y1="92" x2="217.5" y2="129.5" gradientUnits="userSpaceOnUse">
<stop offset="0.255208" stop-color="#B2D0F2"/>
<stop offset="1" stop-color="#6CAFFD"/>
</linearGradient>
<linearGradient id="paint26_linear_4_22" x1="236.75" y1="56" x2="236.75" y2="184" gradientUnits="userSpaceOnUse">
<stop stop-color="#E884F0"/>
<stop offset="1" stop-color="#9B6AFF"/>
</linearGradient>
<linearGradient id="paint27_linear_4_22" x1="303" y1="56" x2="303" y2="184.5" gradientUnits="userSpaceOnUse">
<stop stop-color="#FAFAFA"/>
<stop offset="0.432292" stop-color="#9FDFFF"/>
<stop offset="0.786458" stop-color="#FBF8FF"/>
</linearGradient>
<linearGradient id="paint28_linear_4_22" x1="269.5" y1="56" x2="269.5" y2="185.5" gradientUnits="userSpaceOnUse">
<stop stop-color="#92F1FF"/>
<stop offset="0.0001" stop-color="#92F1FF"/>
<stop offset="1" stop-color="#C7A6FF"/>
</linearGradient>
</defs>
</svg>
